<svg width="144" height="45" viewBox="0 0 144 45" fill="none" xmlns="http://www.w3.org/2000/svg">
<path d="M90.9654 31.7776C89.7565 31.7776 88.6899 31.5198 87.7654 31.0042C86.8588 30.4887 86.1654 29.7598 85.6854 28.8176L87.3121 28.0176C87.9699 29.422 89.2588 30.1242 91.1788 30.1242C92.1032 30.1242 92.8677 29.9554 93.4721 29.6176C94.0765 29.2798 94.3788 28.7554 94.3788 28.0442C94.3788 27.3154 94.1299 26.7731 93.6321 26.4176C93.1521 26.062 92.2988 25.8309 91.0721 25.7242C89.3654 25.582 88.1388 25.1998 87.3921 24.5776C86.6632 23.9554 86.2988 23.1287 86.2988 22.0976C86.2988 20.942 86.7165 20.0442 87.5521 19.4042C88.3876 18.7642 89.5343 18.4442 90.9921 18.4442C93.4632 18.4442 95.1432 19.422 96.0321 21.3776L94.4054 22.1776C94.1032 21.4665 93.6588 20.942 93.0721 20.6042C92.5032 20.2665 91.7654 20.0976 90.8588 20.0976C89.9343 20.0976 89.2232 20.2665 88.7254 20.6042C88.2454 20.942 88.0054 21.422 88.0054 22.0442C88.0054 22.6309 88.2632 23.1109 88.7788 23.4842C89.3121 23.8398 90.2188 24.0709 91.4988 24.1776C93.081 24.3198 94.2543 24.7109 95.0188 25.3509C95.801 25.9731 96.1921 26.7998 96.1921 27.8309C96.1921 28.6665 95.9521 29.3865 95.4721 29.9909C94.9921 30.5776 94.3521 31.022 93.5521 31.3242C92.7521 31.6265 91.8899 31.7776 90.9654 31.7776Z" fill="black"/>
<path d="M83.2025 18.8709V31.3509H81.3892V29.2709C80.9625 30.0709 80.3936 30.6931 79.6825 31.1376C78.9892 31.5642 78.1803 31.7776 77.2559 31.7776C76.3848 31.7776 75.5759 31.5998 74.8292 31.2442C74.1003 30.8887 73.5136 30.3642 73.0692 29.6709C72.6425 28.9776 72.4292 28.1598 72.4292 27.2176V18.8709H74.2425V26.4176C74.2425 28.8887 75.3448 30.1242 77.5492 30.1242C78.8292 30.1242 79.7892 29.6709 80.4292 28.7642C81.0692 27.8576 81.3892 26.6398 81.3892 25.1109V18.8709H83.2025Z" fill="black"/>
<path d="M63.4813 18.4442C64.6724 18.4442 65.7391 18.7287 66.6813 19.2976C67.6235 19.8665 68.3613 20.6576 68.8946 21.6709C69.428 22.6842 69.6946 23.8398 69.6946 25.1376C69.6946 26.4176 69.428 27.5642 68.8946 28.5776C68.3791 29.5731 67.6502 30.3554 66.708 30.9242C65.7835 31.4931 64.7257 31.7776 63.5346 31.7776C62.628 31.7776 61.7924 31.582 61.028 31.1909C60.2813 30.782 59.6502 30.2131 59.1346 29.4842V36.6842H57.3213V18.8709H59.1346V20.7109C59.6502 19.9998 60.2813 19.4487 61.028 19.0576C61.7746 18.6487 62.5924 18.4442 63.4813 18.4442ZM63.5346 30.1242C64.3702 30.1242 65.1168 29.9109 65.7746 29.4842C66.4324 29.0576 66.948 28.4709 67.3213 27.7242C67.6946 26.9598 67.8813 26.0976 67.8813 25.1376C67.8813 24.1598 67.6946 23.2887 67.3213 22.5242C66.948 21.7598 66.4324 21.1642 65.7746 20.7376C65.1168 20.3109 64.3702 20.0976 63.5346 20.0976C62.6813 20.0976 61.9168 20.3109 61.2413 20.7376C60.5835 21.1642 60.068 21.7598 59.6946 22.5242C59.3213 23.2887 59.1346 24.1509 59.1346 25.1109C59.1346 26.0709 59.3213 26.9331 59.6946 27.6976C60.068 28.462 60.5835 29.0576 61.2413 29.4842C61.9168 29.9109 62.6813 30.1242 63.5346 30.1242Z" fill="black"/>
<path d="M50.0538 18.4442C51.2094 18.4442 52.1694 18.8531 52.9338 19.6709C53.6982 20.4709 54.0805 21.582 54.0805 23.0042V31.3509H52.2671V23.8042C52.2671 22.4887 52.0182 21.5465 51.5205 20.9776C51.0227 20.3909 50.3738 20.0976 49.5738 20.0976C48.596 20.0976 47.8316 20.4798 47.2805 21.2442C46.7471 21.9909 46.436 23.0131 46.3471 24.3109V31.3509H44.5338V23.8042C44.5338 22.4887 44.2849 21.5465 43.7871 20.9776C43.2894 20.3909 42.6405 20.0976 41.8405 20.0976C40.756 20.0976 39.9382 20.5509 39.3871 21.4576C38.8538 22.3642 38.5871 23.582 38.5871 25.1109V31.3509H36.7738V18.8709H38.5871V20.8176C38.996 20.0531 39.5116 19.4665 40.1338 19.0576C40.7738 18.6487 41.5027 18.4442 42.3205 18.4442C43.2271 18.4442 44.0182 18.6931 44.6938 19.1909C45.3694 19.6709 45.8405 20.3642 46.1071 21.2709C46.4982 20.382 47.0316 19.6887 47.7071 19.1909C48.3827 18.6931 49.1649 18.4442 50.0538 18.4442Z" fill="black"/>
<path d="M33.4258 18.8709V31.3509H31.6125V29.5109C31.0969 30.222 30.4658 30.782 29.7192 31.1909C28.9725 31.582 28.1547 31.7776 27.2658 31.7776C26.0747 31.7776 25.008 31.4931 24.0658 30.9242C23.1236 30.3554 22.3858 29.5642 21.8525 28.5509C21.3192 27.5376 21.0525 26.382 21.0525 25.0842C21.0525 23.8042 21.3103 22.6665 21.8258 21.6709C22.3592 20.6576 23.088 19.8665 24.0125 19.2976C24.9547 18.7287 26.0214 18.4442 27.2125 18.4442C28.1192 18.4442 28.9458 18.6487 29.6925 19.0576C30.4569 19.4487 31.0969 20.0087 31.6125 20.7376V18.8709H33.4258ZM27.2125 30.1242C28.0658 30.1242 28.8214 29.9109 29.4792 29.4842C30.1547 29.0576 30.6792 28.462 31.0525 27.6976C31.4258 26.9331 31.6125 26.0709 31.6125 25.1109C31.6125 24.1509 31.4258 23.2887 31.0525 22.5242C30.6792 21.7598 30.1547 21.1642 29.4792 20.7376C28.8214 20.3109 28.0658 20.0976 27.2125 20.0976C26.3769 20.0976 25.6303 20.3109 24.9725 20.7376C24.3147 21.1642 23.7992 21.7598 23.4258 22.5242C23.0525 23.2709 22.8658 24.1242 22.8658 25.0842C22.8658 26.062 23.0525 26.9331 23.4258 27.6976C23.7992 28.462 24.3147 29.0576 24.9725 29.4842C25.6303 29.9109 26.3769 30.1242 27.2125 30.1242Z" fill="black"/>
<path d="M12.88 31.7776C11.3511 31.7776 10.0267 31.4043 8.90668 30.6576C7.80445 29.8931 6.95112 28.8087 6.34667 27.4043C5.76001 25.982 5.46667 24.2843 5.46667 22.3109C5.46667 20.3198 5.75112 18.6131 6.32001 17.1909C6.90667 15.7509 7.73334 14.6576 8.80001 13.9109C9.88445 13.1465 11.1645 12.7643 12.64 12.7643C14.1511 12.7643 15.44 13.102 16.5067 13.7776C17.5911 14.4354 18.4356 15.3687 19.04 16.5776L17.44 17.5109C16.8711 16.462 16.2045 15.7154 15.44 15.2709C14.6756 14.8087 13.7422 14.5776 12.64 14.5776C11.0578 14.5776 9.81334 15.262 8.90668 16.6309C8.01779 17.982 7.57334 19.8665 7.57334 22.2843C7.57334 23.8665 7.77779 25.2354 8.18667 26.3909C8.59556 27.5465 9.18223 28.4354 9.94667 29.0576C10.7111 29.662 11.6 29.9643 12.6133 29.9643C13.8756 29.9643 14.8533 29.6887 15.5467 29.1376C16.2578 28.5687 16.9156 27.6887 17.52 26.4976L19.2 27.5109C18.56 28.8976 17.7067 29.9554 16.64 30.6843C15.5911 31.4131 14.3378 31.7776 12.88 31.7776Z" fill="black"/>
<path d="M129.804 28.9381L129.831 24.5896H130.308L132.774 21.1691H136.884L132.748 26.4987H131.714L129.804 28.9381ZM126.517 31.3509V17.7752H130.176V31.3509H126.517ZM132.801 31.3509L130.467 27.3206L132.854 24.7221L136.99 31.3509H132.801Z" fill="black"/>
<path d="M118.108 25.6237V31.351H114.449V21.1691H117.922V23.1047H118.028C118.249 22.4595 118.638 21.9535 119.195 21.5867C119.756 21.22 120.41 21.0366 121.157 21.0366C121.878 21.0366 122.503 21.2023 123.033 21.5337C123.568 21.8607 123.981 22.3115 124.273 22.886C124.569 23.4605 124.715 24.1167 124.71 24.8547V31.351H121.051V25.6237C121.056 25.1199 120.927 24.7244 120.667 24.4371C120.41 24.1499 120.052 24.0063 119.593 24.0063C119.292 24.0063 119.029 24.0725 118.804 24.2051C118.583 24.3333 118.413 24.5189 118.294 24.7619C118.174 25.0006 118.112 25.2878 118.108 25.6237Z" fill="black"/>
<path d="M108.925 31.3509V21.1691H112.585V31.3509H108.925ZM110.755 20.1085C110.26 20.1085 109.836 19.945 109.482 19.618C109.129 19.291 108.952 18.8977 108.952 18.4381C108.952 17.9785 109.129 17.5852 109.482 17.2581C109.836 16.9311 110.26 16.7676 110.755 16.7676C111.254 16.7676 111.679 16.9311 112.028 17.2581C112.381 17.5852 112.558 17.9785 112.558 18.4381C112.558 18.8977 112.381 19.291 112.028 19.618C111.679 19.945 111.254 20.1085 110.755 20.1085Z" fill="black"/>
<path d="M98.2084 31.3509V17.7752H101.894V28.3812H107.383V31.3509H98.2084Z" fill="black"/>
<path d="M140 31.3509H135.333L129.333 26.0176V24.6843L132 20.6843H137.333L133.333 25.3509L140 31.3509Z" fill="black"/>
<path d="M129.333 40.6843V26.0176L140.667 36.0176H134.667L138 42.0176L136 43.3509L132.667 36.6843L129.333 40.6843Z" fill="white"/>
</svg>
